<svg width="960" height="640" viewBox="0 0 960 640" xmlns="http://www.w3.org/2000/svg" role="img" aria-labelledby="title desc">
  <title id="title">Team planning desk</title>
  <desc id="desc">Warm office desk with laptop and planning notes.</desc>
  <defs>
    <linearGradient id="bg" x1="0" y1="0" x2="0" y2="1">
      <stop offset="0" stop-color="#f5e9dc"/>
      <stop offset="1" stop-color="#e7d5c2"/>
    </linearGradient>
    <linearGradient id="wood" x1="0" y1="0" x2="1" y2="1">
      <stop offset="0" stop-color="#b87a4f"/>
      <stop offset="1" stop-color="#9c6139"/>
    </linearGradient>
  </defs>
  <rect width="960" height="640" fill="url(#bg)"/>
  <rect x="50" y="180" width="860" height="390" rx="24" fill="url(#wood)"/>
  <rect x="360" y="290" width="240" height="150" rx="12" fill="#3f3f46"/>
  <rect x="375" y="305" width="210" height="115" rx="8" fill="#dce8f5"/>
  <rect x="150" y="250" width="150" height="210" rx="10" fill="#f8f8f5"/>
  <line x1="170" y1="290" x2="270" y2="290" stroke="#a6b9c9" stroke-width="6"/>
  <line x1="170" y1="330" x2="260" y2="330" stroke="#c6d5e0" stroke-width="6"/>
  <line x1="170" y1="370" x2="280" y2="370" stroke="#d8e2ea" stroke-width="6"/>
  <rect x="640" y="250" width="180" height="210" rx="12" fill="#f4f0ea"/>
  <polyline points="670,390 710,350 750,375 790,315" fill="none" stroke="#2f8f79" stroke-width="8" stroke-linecap="round" stroke-linejoin="round"/>
  <circle cx="670" cy="390" r="6" fill="#2f8f79"/>
  <circle cx="710" cy="350" r="6" fill="#2f8f79"/>
  <circle cx="750" cy="375" r="6" fill="#2f8f79"/>
  <circle cx="790" cy="315" r="6" fill="#2f8f79"/>
  <circle cx="540" cy="500" r="40" fill="#252525"/>
  <ellipse cx="540" cy="505" rx="28" ry="22" fill="#1a1a1a"/>
</svg>
