<svg width="960" height="640" viewBox="0 0 960 640" xmlns="http://www.w3.org/2000/svg" role="img" aria-labelledby="title desc">
  <title id="title">Team success meeting</title>
  <desc id="desc">Two colleagues celebrating planning success in a warm office.</desc>
  <defs>
    <linearGradient id="wall" x1="0" y1="0" x2="1" y2="1">
      <stop offset="0" stop-color="#f3e8dc"/>
      <stop offset="1" stop-color="#e7d4c2"/>
    </linearGradient>
    <linearGradient id="table" x1="0" y1="0" x2="0" y2="1">
      <stop offset="0" stop-color="#c28a61"/>
      <stop offset="1" stop-color="#ad744a"/>
    </linearGradient>
  </defs>
  <rect width="960" height="640" fill="url(#wall)"/>
  <rect x="0" y="390" width="960" height="250" fill="url(#table)"/>
  <rect x="340" y="380" width="280" height="140" rx="12" fill="#dfe7f0"/>
  <rect x="365" y="405" width="230" height="90" rx="8" fill="#f9fcff"/>

  <circle cx="260" cy="250" r="52" fill="#e8b38f"/>
  <path d="M210 330c15-35 45-55 90-55s75 20 90 55" fill="#6785af"/>
  <path d="M210 330h180v60H210z" fill="#5d779e"/>
  <line x1="335" y1="298" x2="430" y2="250" stroke="#e8b38f" stroke-width="18" stroke-linecap="round"/>

  <circle cx="700" cy="245" r="50" fill="#e3a57f"/>
  <path d="M650 320c14-33 42-52 86-52 42 0 70 19 84 52" fill="#2f8f79"/>
  <path d="M650 320h170v62H650z" fill="#287866"/>
  <line x1="625" y1="250" x2="535" y2="220" stroke="#e3a57f" stroke-width="18" stroke-linecap="round"/>

  <circle cx="488" cy="230" r="18" fill="#f3cf63"/>
  <path d="M488 212v-14M488 248v14M470 230h-14M506 230h14" stroke="#dba841" stroke-width="4" stroke-linecap="round"/>
</svg>
